<svg version="1.2" xmlns="http://www.w3.org/2000/svg" viewBox="0 0 918 372" width="918" height="372">
	<title>blue-isabella-garage-door-logo</title>
	<style>
		.s0 { fill: #1a334f } 
		.s1 { fill: #1a334f;stroke: #1a334f;stroke-linecap: round;stroke-miterlimit:100 } 
		.s2 { fill: #b27d57 } 
		.s3 { paint-order:stroke fill markers;stroke: #b27d57;stroke-width: 4;stroke-linejoin: round;;fill: #1a334f } 
	</style>
	<path id="Elevating Standards." class="s0" aria-label="Elevating Standards."  d="m494.6 344.7h-8.6l0.3-1h8.6zm-3.8 0l0.3-1q1.6 0 2.7-0.6 1.1-0.7 1.7-1.8 0.7-1 1.1-2.2 0.5-1.1 0.9-2h1.1q-0.9 2.9-1.3 4.4-0.4 1.4-0.7 2.7-0.2 0.8-0.5 1.7-0.2 1-0.5 2.2-0.2 1.3-0.6 3.2h-1.1q0.1-1.2 0.2-2.4 0.2-1.1 0-2.1-0.2-0.9-0.9-1.5-0.8-0.6-2.4-0.6zm14.7-9.1h-1.1q0.5-3 0.3-4.7-0.1-1.7-1.2-2.4-1.1-0.7-3.8-0.7h-3.6q-1.7 0-2.7 0.3-0.8 0.2-1.4 1.1-0.6 0.9-1.1 2.7l-6.6 24.8q-0.5 1.8-0.4 2.7 0 0.9 0.8 1.2 0.8 0.3 2.5 0.3h3.7q3.1 0 5-0.9 1.8-0.9 3.1-2.7 1.2-2 2.4-5.3h1.2q-0.2 0.6-0.6 1.6-0.3 1-0.5 2-0.3 1-0.6 2.8-0.5 1.7-0.8 3.6-2.5-0.1-5.7-0.1-3.2 0-5.7 0-1.1 0-2.8 0-1.8 0-3.8 0-2 0-4 0-2.1 0-3.9 0.1l0.3-1q1.7-0.1 2.6-0.4 1-0.3 1.5-1.2 0.5-0.9 1-2.7l6.7-24.8q0.5-1.8 0.4-2.7-0.1-0.9-0.8-1.2-0.8-0.4-2.5-0.4l0.2-1q1.9 0 3.9 0.1 2.1 0 4.1 0.1 2 0 3.7 0 1.7 0 2.8 0 2.3 0 5 0 2.8-0.1 5-0.2-0.7 1.8-1.2 3.4-0.5 1.6-0.7 2.5-0.3 0.9-0.5 1.8-0.1 0.8-0.2 1.3zm16.5-13.3l-10.4 35.5q-0.4 1.4-0.2 2.3 0.1 0.8 1.1 0.8 1 0 1.8-1.1 0.9-1.2 1.9-4l0.7-1.9h0.9l-1.3 3.7q-0.6 1.8-1.5 3-1 1.1-2 1.6-1.1 0.5-2.4 0.5-1.7 0-2.5-0.6-0.7-0.7-1-1.7-0.1-1 0.1-2.3 0.2-1.2 0.6-2.4l8.2-27.1q0.5-1.6-0.1-2.5-0.7-0.7-3.1-0.7l0.3-1.1q2.8 0 4.9-0.5 2.1-0.6 4-1.5zm2.5 29.2v-0.9q2.9-0.9 5.1-1.8 2.3-0.9 3.6-2 1.8-1.4 2.9-3.5 1-2 1-4.5 0-1.4-0.1-1.8-0.3-0.4-0.6-0.4-1.3 0-2.8 1-1.4 1.2-2.8 3.1-1.4 1.9-2.6 4.4-1.2 2.4-1.8 5.2-0.8 2.8-0.8 5.5 0 2.6 1 3.7 0.9 1.1 2.5 1.1 1.8 0 3.8-1.1 2-1.1 3.9-3.9l0.8 0.4q-1 1.6-2.5 3.2-1.6 1.6-3.5 2.6-1.9 0.9-4.1 0.9-2 0-3.5-0.8-1.5-0.8-2.3-2.3-0.7-1.6-0.7-4 0-2.1 0.7-4.7 0.8-2.8 2.3-5.4 1.5-2.7 3.5-4.9 2.1-2.3 4.6-3.6 2.5-1.4 5.4-1.4 1.5 0 2.5 0.9 1.1 0.8 1.1 2.4 0 2-1.1 3.7-1.2 1.8-3.1 3.2-1.9 1.4-4.2 2.5-2.2 1.1-4.4 1.9-2.2 0.8-3.8 1.3zm41-8.4q-1.4-0.7-2.6-2.1-1.2-1.4-1-3.4 0.1-1.1 0.7-1.5 0.8-0.5 1.4-0.5 1.8 0 2.5 2 0.6 1.9 0.2 5-0.3 3-1.2 5.9-0.8 2.9-2.1 5.4-1.4 2.6-3.2 4.6-1.8 2-4.2 3.1-2.3 1.1-5 1.1-2.3 0-3.6-0.9-1.3-0.9-1.8-2.3-0.5-1.5-0.4-3 0.3-2.8 1.8-6 1.5-3.2 4-6.5 2.5-3.4 5.9-6.5-0.9 0.3-1.8 0.9-0.9 0.5-1.7 1-0.9 0.5-1.7 0.9-0.7 0.3-1.5 0.3-0.9 0-1.6-0.5-0.6-0.7-1.5-0.7-0.8 0-1.4 0.7-0.5 0.7-1.1 2.4l-0.5 1.9h-1l1.1-3.7q0.9-3 2.2-4.1 1.2-1 2.6-1 0.9 0 1.5 0.5 0.7 0.5 1.4 1 0.6 0.5 1.6 0.5 1.2 0 2.2-0.4 1.2-0.4 2-1.2l0.5-0.9 1 0.5q-2 2.4-3.6 4.9-1.5 2.4-2.6 4.9-1.1 2.5-1.9 5-0.6 2.6-0.9 5.2-0.2 3 0.4 4.2 0.7 1.3 1.8 1.3 2.3 0 4.3-1.3 2-1.2 3.6-3.3 1.6-2.1 2.7-4.4 1.1-2.5 1.7-4.8 0.7-2.4 0.8-4.2zm9.5 18q1.2 0 2.8-1.5 1.6-1.5 3.2-4.2 1.5-2.5 2.9-5.8 1.3-3.3 2.1-6.9l-0.8 5.4q-1.9 5.3-3.8 8.5-1.9 3.3-3.9 4.7-1.9 1.4-3.9 1.4-2.4 0-3.6-1.7-1.1-1.7-1.1-4.4 0-2.3 0.8-5.2 0.8-2.8 2.2-5.6 1.5-2.8 3.3-5.1 1.8-2.3 4-3.7 2.2-1.4 4.4-1.4 1.8 0 2.7 1.8 0.9 1.7 0.4 4.7l-0.6 0.3q0.4-2.6-0.3-4.2-0.7-1.6-2.3-1.6-1.3 0-2.8 1.3-1.3 1.2-2.7 3.4-1.3 2.1-2.4 4.8-1.1 2.8-1.7 5.7-0.6 2.8-0.6 5.5 0 2.1 0.4 3 0.5 0.8 1.3 0.8zm7.7-5.5l4.9-19.3q1.3 0 2.4-0.2 1.2-0.1 2.2-0.5l-6.2 22.1q-0.1 0.4-0.3 1.2-0.2 0.7 0 1.3 0.2 0.6 1 0.6 1 0 2-1.1 0.9-1.1 1.9-4l0.6-1.8h0.9l-1.2 3.6q-0.7 2-1.7 3.1-1 1.2-2 1.7-1.1 0.4-2.1 0.4-1.9 0-2.7-1.3-0.7-1.1-0.4-2.6 0.4-1.6 0.7-3.2zm15.2-19.3h15.5l-0.2 1h-15.6zm11.3-8.3l-8.5 29.8q-0.4 1.6 0.2 2.3 0.7 0.8 1.8 0.8 1.1 0 2.2-1 1.1-1 2.3-4l0.6-2h1l-1 3.2q-1.1 3.2-2.9 4.4-1.7 1.2-4 1.2-2 0-3.1-0.8-1.1-1-1.3-2.5-0.2-1.6 0.4-3.7l7.8-27q1.1-0.1 2.3-0.2 1.2-0.1 2.2-0.5zm11.7-0.8q0.3-1.3 1.3-2.3 1.1-0.9 2.3-0.9 1.4 0 2 0.9 0.8 1 0.5 2.3-0.2 1.3-1.3 2.2-1 1-2.3 1-1.3 0-2-1-0.7-0.9-0.5-2.2zm-6.9 28.5l5.4-15.1q1-3.2-0.7-3.2-1.2 0-2.1 1.3-0.9 1.2-1.9 3.9l-0.7 1.8h-1l1.4-3.6q0.7-2.2 1.8-3.2 1-1.2 2.2-1.5 1.1-0.5 2.1-0.5 1.7 0 2.4 0.7 0.8 0.6 0.9 1.6 0.2 1.1-0.1 2.4-0.2 1.1-0.7 2.3l-5.3 15.2q-0.5 1.4-0.3 2.3 0.1 0.8 1.1 0.8 1 0 1.9-1.1 0.9-1.2 2-4l0.7-1.9h0.9l-1.2 3.7q-0.8 1.9-1.8 3-1 1.2-2.1 1.7-1.1 0.4-2.3 0.4-2.1 0-2.9-1-0.7-1-0.5-2.6 0.2-1.6 0.8-3.4zm23.5-13.1l-4.8 19.4h-4.4l6-21.4q0.2-0.6 0.3-1.3 0.2-0.8-0.1-1.3-0.1-0.5-1-0.5-1 0-1.9 1.1-0.8 1-1.9 4l-0.7 1.8h-0.9l1.3-3.6q1.1-3.2 2.6-4.2 1.7-1 3.3-1 1.5 0 2.2 0.7 0.7 0.6 0.7 1.7 0.1 1-0.2 2.2-0.1 1.2-0.5 2.4zm-4 16l1.5-7q1.7-4.5 3.4-7.5 1.6-3.1 3.2-5 1.6-1.8 3.3-2.6 1.6-0.9 3.5-0.9 2.3 0 3.1 1.2 1 1.1 0.9 2.8-0.1 1.7-0.7 3.5l-4.9 14.7q-0.4 1.3-0.4 2.2 0.1 0.9 1.2 0.9 0.9 0 1.9-1.1 0.9-1 2-4l0.6-1.9h0.9l-1.2 3.7q-0.7 2-1.8 3.2-1 1.1-2.1 1.5-1.1 0.4-2.1 0.4-1.3 0-2-0.4-0.8-0.4-1.2-1-0.6-0.9-0.3-2.4 0.2-1.4 0.7-3.2l4.8-14.3q0.2-0.7 0.4-1.6 0.2-1 0-1.8-0.3-0.8-1.5-0.8-1.2 0-2.5 1.1-1.4 1-2.8 3-1.5 1.8-2.9 4.6-1.4 2.6-2.7 5.9-1.3 3.2-2.3 6.8zm32.9-7.8h1.2q-1.8 1-3.3 1.8-1.5 0.9-2.5 1.5-0.9 0.8-0.9 1.4 0 0.5 0.6 1 0.8 0.4 2.4 0.8l3.6 0.9q1.6 0.4 2.9 0.9 1.3 0.5 2 1.4 0.8 0.8 0.8 2.1 0 1.2-0.9 2.8-0.8 1.6-2.5 3-1.8 1.5-4.5 2.4-2.8 1-6.6 1-2.7 0-4.4-0.5-1.8-0.5-2.7-1.3-0.8-0.9-0.8-2 0-0.8 0.4-1.6 0.5-0.9 1.3-1.8 0.9-0.8 2.2-1.5 1.3-0.7 3.2-1.2l0.3 0.7q-1.8 1-2.5 2.2-0.7 1.2-0.7 2.3 0 2 1.4 3 1.4 0.8 3.4 0.8 1.7 0 3.4-0.5 1.8-0.5 3.3-1.4 1.5-0.9 2.4-2 0.9-1.2 0.9-2.4 0-0.8-0.5-1-0.5-0.3-1.6-0.5l-7.7-2q-1.1-0.3-1.9-1-0.7-0.7-0.7-2 0-1 0.6-2 0.8-1.1 2.7-2.3 2-1.3 5.7-3zm2.5-14.3q-1.6 0-2.7 1-1.1 0.9-1.8 2.3-0.7 1.4-1.1 3-0.4 1.5-0.5 2.8-0.2 1.3-0.2 1.9 0 1.6 0.7 2.3 0.7 0.7 2 0.7 1.9 0 3-1.2 1.2-1.2 1.9-2.8 0.6-1.7 0.8-3.4 0.3-1.7 0.3-2.9 0-1.7-0.5-2.7-0.4-1-1.9-1zm0.2-0.9q2.9 0 4.8 1.4 1.8 1.3 1.8 4.2 0 2.4-1.3 4.8-1.4 2.3-3.9 3.9-2.4 1.5-5.7 1.5-2.8 0-4.7-1.3-1.8-1.4-1.8-4.2 0-1.3 0.5-3.1 0.6-1.8 1.9-3.4 1.2-1.6 3.3-2.7 2-1.1 5.1-1.1zm3.6 2.6l-0.9-0.3q0.7-1.8 2.4-3 1.7-1.3 3.5-1.3 1.3 0 2.1 0.7 0.8 0.7 0.8 2.3 0 1.4-0.7 2-0.7 0.7-1.5 0.7-0.8 0-1.5-0.5-0.7-0.6-0.9-1.7-0.1-1.2 0.7-3l0.6 0.2q-2.1 0.8-3 1.7-0.9 0.8-1.6 2.2zm45.8-11.9h1q-0.5 1.3-1.4 3.8-0.8 2.4-1.6 6.4h-1q0.2-0.7 0.2-1.5 0.1-0.7 0.1-1.4 0-1.8-0.8-3.3-0.6-1.6-2.2-2.5-1.5-0.9-4.1-0.9-3 0-5 1.5-2 1.6-2 4.8 0 1.9 0.9 3.6 0.9 1.6 2.4 3.1 1.4 1.4 3 2.9 1.7 1.5 3 3 1.5 1.6 2.4 3.3 1 1.7 1 3.8 0 2.6-1.2 4.5-1.2 1.8-3 3-1.8 1.2-4.1 1.7-2.2 0.6-4.4 0.6-2 0-3.3-0.3-1.4-0.4-2.3-1-0.9-0.5-1.5-1-0.6-0.4-1.1-0.6-0.4-0.2-0.7-0.2-0.6 0-1.1 0.8-0.4 0.6-0.9 2h-1q0.4-1.1 0.9-2.6 0.5-1.4 1.1-3.7 0.6-2.3 1.4-5.7h1q-0.2 1-0.4 2-0.1 1-0.1 2 0.2 3.4 2.1 5.4 2 1.9 6.1 1.9 3.2 0 5.3-1.5 2-1.5 2-4.7 0-2.1-0.8-3.8-0.9-1.6-2.2-3.1-1.3-1.4-2.8-2.7-1.4-1.4-2.8-2.8-1.3-1.5-2.1-3.3-0.8-1.8-0.8-4.2 0-2.3 0.9-4.1 0.9-1.9 2.5-3.1 1.6-1.3 3.6-1.8 1.9-0.7 4-0.7 2.1 0 3.6 0.5 1.5 0.5 2.9 1.6 0.6 0.5 1 0.7 0.3 0.2 0.6 0.2 0.7 0 1.7-2.6zm3.2 10h15.4l-0.1 1h-15.6zm11.2-8.3l-8.4 29.8q-0.5 1.6 0.2 2.3 0.6 0.8 1.8 0.8 1.1 0 2.2-1 1.1-0.9 2.2-4l0.7-2h1l-1.1 3.2q-1.1 3.2-2.8 4.4-1.7 1.2-4 1.2-2.1 0-3.2-0.8-1-0.9-1.2-2.5-0.2-1.6 0.4-3.7l7.7-27q1.2-0.1 2.4-0.2 1.2-0.1 2.1-0.5zm8.9 33.1q1.2 0 2.8-1.5 1.5-1.5 3.1-4.1 1.6-2.6 2.9-5.9 1.4-3.3 2.2-6.9l-0.8 5.4q-1.9 5.3-3.9 8.5-1.8 3.3-3.8 4.7-2 1.4-4 1.4-2.3 0-3.5-1.7-1.2-1.7-1.2-4.4 0-2.3 0.9-5.1 0.8-2.9 2.1-5.7 1.5-2.8 3.4-5.1 1.8-2.3 4-3.7 2.1-1.4 4.4-1.4 1.7 0 2.7 1.8 0.9 1.7 0.4 4.7l-0.6 0.4q0.4-2.7-0.3-4.3-0.8-1.6-2.3-1.6-1.3 0-2.8 1.3-1.4 1.2-2.7 3.4-1.3 2.2-2.5 4.8-1 2.8-1.7 5.7-0.5 2.8-0.5 5.5 0 2.1 0.4 3 0.5 0.8 1.3 0.8zm7.7-5.5l4.9-19.3q1.2 0 2.4-0.2 1.2-0.1 2.2-0.5l-6.2 22.1q-0.2 0.4-0.3 1.2-0.2 0.7 0 1.3 0.1 0.6 1 0.6 1 0 2-1.1 0.9-1.1 1.8-4l0.7-1.8h0.9l-1.3 3.6q-0.6 2-1.6 3.1-1 1.2-2 1.7-1.1 0.4-2.1 0.4-1.9 0-2.8-1.3-0.6-1.1-0.3-2.6 0.3-1.6 0.7-3.2zm22.8-13l-4.8 19.4h-4.4l6-21.4q0.2-0.6 0.3-1.3 0.2-0.8-0.1-1.3-0.1-0.5-1-0.5-1 0-1.9 1.1-0.8 1-1.9 4l-0.7 1.8h-0.9l1.3-3.6q1.1-3.2 2.6-4.2 1.7-1 3.3-1 1.5 0 2.2 0.7 0.7 0.6 0.7 1.7 0.1 1-0.2 2.2-0.1 1.2-0.5 2.4zm-4 16l1.5-7q1.7-4.5 3.4-7.5 1.6-3.1 3.2-5 1.6-1.8 3.3-2.6 1.6-0.9 3.5-0.9 2.3 0 3.1 1.2 1 1.1 0.9 2.8-0.1 1.7-0.7 3.5l-4.9 14.7q-0.4 1.3-0.4 2.2 0.1 0.9 1.2 0.9 0.9 0 1.9-1.1 0.9-1 2-4l0.6-1.9h0.9l-1.2 3.7q-0.7 2-1.8 3.2-1 1.1-2.1 1.5-1.1 0.4-2.1 0.4-1.3 0-2-0.4-0.8-0.4-1.2-1-0.6-0.9-0.3-2.4 0.2-1.4 0.7-3.2l4.8-14.3q0.2-0.7 0.4-1.6 0.2-1 0-1.8-0.3-0.8-1.5-0.8-1.2 0-2.5 1.1-1.4 1-2.8 3-1.5 1.8-2.9 4.6-1.4 2.6-2.7 5.9-1.3 3.2-2.3 6.8zm50.3-36.3l-9.8 35.5q-0.3 1.1-0.3 2.1 0.1 1 1.2 1 1 0 1.9-1.1 0.8-1.2 1.7-4l0.7-1.9h0.9l-1.1 3.7q-0.6 2-1.6 3.1-1 1.1-2.1 1.6-1.1 0.4-2.1 0.4-3 0-3.2-2.8 0-0.8 0.1-1.9 0.2-1.1 0.6-2.3l7.2-27.1q0.4-1.6-0.2-2.5-0.6-0.7-3-0.7l0.3-1.1q2.7 0 4.8-0.5 2.1-0.6 4-1.5zm-21 38.8q1.2 0 2.8-1.5 1.6-1.5 3.2-4 1.7-2.5 3-5.7 1.4-3.3 2.2-6.7l-0.7 5.4q-2 5.2-3.9 8.3-1.9 3.1-3.9 4.5-2 1.3-4.1 1.3-1.6 0-2.8-0.7-1.1-0.7-1.8-2.2-0.6-1.4-0.6-3.7 0-2.4 0.7-5.1 0.8-2.9 2.3-5.5 1.4-2.7 3.4-4.9 2.1-2.3 4.5-3.6 2.4-1.4 5.2-1.4 1.2 0 2.2 0.9 1 0.9 1 2.6l-0.3 1q-0.2-1.8-1-2.5-0.8-0.8-1.8-0.8-1.9 0-3.7 1.3-1.8 1.3-3.2 3.4-1.5 2.1-2.6 4.8-1.1 2.6-1.7 5.3-0.6 2.8-0.6 5.2 0 2.2 0.6 3.3 0.5 1 1.6 1zm26.5 0q1.2 0 2.7-1.5 1.5-1.5 3.2-4.1 1.6-2.6 2.9-5.9 1.4-3.3 2.2-6.9l-0.9 5.4q-1.9 5.3-3.8 8.5-1.9 3.3-3.8 4.7-2 1.4-4 1.4-2.3 0-3.5-1.7-1.2-1.7-1.2-4.4 0-2.3 0.8-5.1 0.8-2.9 2.2-5.7 1.4-2.8 3.3-5.1 1.9-2.3 4-3.7 2.2-1.4 4.4-1.4 1.8 0 2.7 1.8 1 1.7 0.4 4.7l-0.6 0.4q0.4-2.7-0.3-4.3-0.7-1.6-2.3-1.6-1.3 0-2.7 1.3-1.5 1.2-2.8 3.4-1.3 2.2-2.4 4.8-1 2.8-1.7 5.7-0.6 2.8-0.6 5.5 0 2.1 0.5 3 0.5 0.8 1.3 0.8zm7.7-5.5l4.8-19.3q1.2 0 2.5-0.2 1.2-0.1 2.2-0.5l-6.3 22.1q-0.1 0.4-0.3 1.2-0.1 0.7 0 1.3 0.2 0.6 1.1 0.6 1 0 1.9-1.1 0.9-1.1 1.9-4l0.6-1.8h0.9l-1.2 3.6q-0.7 2-1.7 3.1-0.9 1.2-2 1.7-1.1 0.4-2.1 0.4-1.9 0-2.7-1.3-0.6-1.1-0.3-2.6 0.2-1.6 0.7-3.2zm22.8-13l-4.9 19.4h-4.4l6-21.4q0.5-1.7 0.3-2.5-0.1-0.6-1-0.6-1.1 0-2 1.1-0.9 1.2-1.9 4l-0.6 1.8h-1l1.2-3.6q0.8-2.2 1.8-3.2 1.1-1.1 2.2-1.5 1.1-0.5 2.1-0.5 1.5 0 2.1 0.7 0.7 0.6 0.7 1.7 0.1 1-0.1 2.3-0.3 1.2-0.5 2.3zm7.9-5.7q-1.2 0-2.4 1.1-1.2 1-2.5 3.1-1.3 2-2.5 4.8-1.3 2.8-2.5 6.2-1.3 3.5-2.4 7.5l1.3-6.4q1.6-4.9 3-8.2 1.5-3.4 2.8-5.4 1.5-2.1 2.9-3 1.5-1 3.1-1 1.5 0 2.2 0.8 0.8 0.8 0.8 2.1 0 1-0.5 1.8-0.5 0.8-1.3 1.3-0.7 0.5-1.7 0.5-0.8 0-1.5-0.5-0.5-0.5-0.5-1.3 0-0.8 0.3-1.4 0.3-0.7 0.8-1.1 0.5-0.5 1.2-0.7-0.1-0.1-0.3-0.2-0.1 0-0.3 0zm29.7-14.6l-9.9 35.5q-0.3 1.1-0.2 2.1 0.1 1 1.2 1 1 0 1.8-1.1 0.9-1.2 1.8-4l0.6-1.9h1l-1.2 3.7q-0.6 2-1.6 3.1-1 1.1-2.1 1.6-1.1 0.4-2.1 0.4-3 0-3.2-2.8 0-0.8 0.2-1.9 0.2-1 0.5-2.3l7.2-27.1q0.5-1.6-0.1-2.5-0.6-0.7-3.1-0.7l0.3-1.1q2.8 0 4.9-0.5 2.1-0.6 4-1.5zm-21 38.8q1.2 0 2.8-1.5 1.6-1.5 3.2-4 1.6-2.5 3-5.7 1.4-3.3 2.1-6.7l-0.7 5.4q-1.9 5.2-3.9 8.3-1.9 3.1-3.9 4.5-2 1.3-4.1 1.3-1.5 0-2.7-0.7-1.2-0.7-1.8-2.2-0.7-1.4-0.7-3.7 0-2.4 0.8-5.1 0.8-2.9 2.2-5.5 1.5-2.7 3.5-4.9 2-2.3 4.5-3.6 2.4-1.4 5.2-1.4 1.1 0 2.1 0.9 1 0.9 1.1 2.6l-0.4 1q-0.2-1.8-1-2.5-0.8-0.8-1.8-0.8-1.9 0-3.7 1.3-1.7 1.3-3.2 3.4-1.5 2.1-2.5 4.8-1.1 2.6-1.7 5.3-0.6 2.8-0.6 5.2 0 2.2 0.5 3.3 0.6 1 1.7 1zm22.8 0.2q0.4 0.2 0.8 0.3 0.5 0.1 1.5 0.1 2.2 0 3.6-1.3 1.4-1.3 1.4-3.8 0-1.6-0.6-3.1-0.5-1.5-2-3.5-1.1-1.6-2.2-3.3-1-1.7-1-4 0-2.1 1-3.7 1.1-1.6 2.8-2.5 1.8-0.9 3.9-0.9 1.5 0 2.9 0.4 1.4 0.3 2.3 1.3 0.9 0.8 0.9 2.7 0 0.4-0.2 1.1-0.2 0.5-0.7 1-0.5 0.5-1.4 0.5-0.8 0-1.4-0.6-0.6-0.6-0.6-1.5 0-0.9 0.4-1.7 0.4-0.9 1-1.7-0.9-0.6-2.5-0.6-1.8 0-3.1 1.3-1.2 1.2-1.2 3.5 0 1.1 0.3 2 0.4 0.8 1 1.8 0.7 1 1.7 2.4 1.2 1.9 2.1 3.6 0.8 1.8 0.8 3.8 0 2.2-1.2 4.1-1.1 1.7-3.1 2.7-1.9 1-4.3 1-1.7 0-3.2-0.5-1.6-0.5-2.6-1.6-0.9-1-0.9-2.8 0-0.7 0.4-1.5 0.4-0.8 1.5-0.8 1.2 0 1.7 1 0.5 1 0.5 2.1 0 0.9-0.1 1.5-0.1 0.6-0.2 1.2zm16-1.2q0-1.5 1.2-2.6 1.1-1.2 2.5-1.2 1.1 0 1.9 0.8 0.7 0.7 0.7 1.8 0 1-0.6 1.9-0.5 0.8-1.4 1.4-0.8 0.5-1.8 0.5-1.1 0-1.8-0.7-0.7-0.7-0.7-1.9z"/>
	<path id="Raising Performance." class="s0" aria-label="Raising Performance."  d="m14.1 345.2l0.1-0.8q2.7 0.1 4.3 0.2 1.5 0.1 2.4 0.2 1 0.1 1.8 0.3 1.5 0.3 2.6 0.7 1.1 0.4 1.8 1.2 0.7 0.7 1 1.9 0.3 1.1 0.1 2.7l-0.4 5.2q-0.1 1.5 0.2 2.8 0.3 1.3 1.4 1.3 0.9-0.1 1.6-1.1 0.7-1.2 1.4-3.2l0.2-0.6h1.2l-0.3 0.6q-0.8 3-2.2 4.6-1.3 1.5-3.7 1.5-2.4 0-3.5-1.4-1.1-1.5-1-3.4l0.4-5.6q0.2-2.7-0.4-4.2-0.5-1.5-2.6-2.2-2.1-0.7-6.4-0.7zm1.6 0h-2l0.2-1h2.3q3.6 0 6-0.8 2.5-0.8 3.9-2.3 1.5-1.5 2.2-3.5 0.7-2 0.7-4.2 0-2.9-1.5-4.3-1.5-1.5-4.9-1.5-2.2 0-3.1 0.9-0.9 0.9-1.6 3.4l-6.6 24.8q-0.4 1.6-0.4 2.5-0.1 0.9 0.7 1.4 0.8 0.3 2.7 0.4l-0.2 1q-1.2-0.1-2.8-0.1-1.7 0-3.4 0-2 0-3.7 0-1.8 0-2.8 0.1l0.2-1q1.7-0.1 2.6-0.4 1-0.3 1.5-1.2 0.6-0.9 1-2.7l6.6-24.8q0.5-1.6 0.4-2.5 0-0.9-0.7-1.3-0.8-0.5-2.6-0.5l0.2-1q0.7 0 1.7 0.1 1 0 2.2 0.1 1.2 0 2.3 0 1.8 0 3.6-0.1 1.8-0.1 3.7-0.1 5 0 7.5 2 2.4 1.9 2.4 5.1 0 3.4-2.3 5.9-2.3 2.6-6.5 4.1-4.1 1.5-9.5 1.5zm27.1 15.9q1.2 0 2.8-1.5 1.5-1.5 3.1-4.1 1.6-2.6 3-5.9 1.3-3.3 2.1-6.9l-0.8 5.4q-1.9 5.3-3.8 8.5-1.9 3.3-3.9 4.7-1.9 1.4-3.9 1.4-2.4 0-3.6-1.7-1.1-1.7-1.1-4.4 0-2.3 0.8-5.1 0.8-2.9 2.2-5.7 1.4-2.8 3.3-5.1 1.8-2.3 4-3.7 2.2-1.4 4.4-1.4 1.8 0 2.7 1.8 0.9 1.7 0.4 4.7l-0.6 0.4q0.4-2.7-0.3-4.3-0.7-1.6-2.3-1.6-1.3 0-2.8 1.3-1.4 1.2-2.8 3.4-1.2 2.1-2.3 4.8-1.1 2.8-1.7 5.7-0.6 2.8-0.6 5.5 0 2.1 0.4 3 0.5 0.8 1.3 0.8zm7.7-5.5l4.9-19.3q1.2 0 2.4-0.2 1.2-0.1 2.2-0.5l-6.3 22.1q0 0.4-0.2 1.2-0.2 0.7 0 1.3 0.2 0.6 1 0.6 1 0 2-1.1 0.9-1.1 1.9-4l0.6-1.8h0.9l-1.2 3.6q-0.7 2-1.7 3.1-1 1.2-2 1.7-1.1 0.4-2.1 0.4-1.9 0-2.7-1.3-0.7-1.1-0.4-2.6 0.3-1.6 0.7-3.2zm21.3-28.4q0.3-1.3 1.3-2.3 1.1-0.9 2.4-0.9 1.3 0 2 0.9 0.7 1 0.5 2.3-0.3 1.3-1.4 2.2-1 1-2.3 1-1.3 0-2-1-0.7-0.9-0.5-2.2zm-6.9 28.5l5.4-15.1q1-3.2-0.7-3.2-1.2 0-2.1 1.3-0.9 1.2-1.9 3.9l-0.7 1.8h-0.9l1.2-3.6q0.8-2.2 1.9-3.2 1-1.2 2.2-1.5 1.2-0.5 2.2-0.5 1.6 0 2.3 0.7 0.8 0.6 0.9 1.6 0.2 1.1-0.1 2.4-0.2 1.1-0.6 2.3l-5.4 15.2q-0.5 1.4-0.3 2.3 0.2 0.8 1.1 0.8 1 0 1.9-1.1 0.9-1.2 2-4l0.7-1.9h1l-1.3 3.7q-0.7 1.9-1.7 3-1 1.2-2.2 1.7-1.1 0.4-2.3 0.4-2.1 0-2.9-1-0.7-1-0.5-2.6 0.1-1.6 0.8-3.4zm15.5 5.6q0.4 0.1 0.9 0.3 0.5 0.1 1.4 0.1 2.2 0 3.6-1.3 1.5-1.3 1.5-3.8 0-1.6-0.6-3.1-0.6-1.6-2-3.6-1.2-1.5-2.2-3.2-1.1-1.7-1.1-4 0-2.1 1.1-3.7 1-1.6 2.8-2.5 1.8-0.9 3.9-0.9 1.4 0 2.8 0.3 1.4 0.4 2.3 1.4 1 0.8 1 2.6 0 0.5-0.3 1.2-0.2 0.5-0.7 1-0.5 0.5-1.3 0.5-0.8 0-1.4-0.6-0.6-0.6-0.6-1.6 0-0.8 0.3-1.6 0.4-0.9 1.1-1.7-1-0.6-2.5-0.6-1.9 0-3.1 1.3-1.3 1.2-1.3 3.5 0 1.1 0.4 2 0.3 0.8 1 1.8 0.7 1 1.6 2.4 1.3 1.9 2.1 3.6 0.9 1.8 0.9 3.8 0 2.2-1.2 4-1.2 1.8-3.1 2.8-2 1-4.3 1-1.7 0-3.3-0.5-1.5-0.5-2.5-1.6-1-1-1-2.8 0-0.7 0.4-1.5 0.5-0.8 1.6-0.8 1.2 0 1.7 1 0.5 1 0.5 2.1 0 0.9-0.2 1.5-0.1 0.6-0.2 1.2zm25.6-34.1q0.2-1.3 1.3-2.2 1.1-1 2.3-1 1.3 0 2 1 0.8 0.9 0.5 2.2-0.2 1.3-1.3 2.3-1.1 0.9-2.4 0.9-1.2 0-2-0.9-0.7-1-0.4-2.3zm-6.9 28.5l5.3-15.1q1.1-3.1-0.7-3.1-1.1 0-2 1.2-0.9 1.3-1.9 3.9l-0.7 1.8h-1l1.3-3.6q0.8-2.2 1.8-3.2 1.1-1.1 2.2-1.5 1.2-0.5 2.2-0.5 1.6 0 2.4 0.7 0.7 0.6 0.9 1.7 0.1 1-0.1 2.3-0.3 1.2-0.7 2.3l-5.3 15.2q-0.5 1.4-0.4 2.3 0.2 0.8 1.2 0.8 1 0 1.9-1.1 0.9-1.2 2-4l0.7-1.9h0.9l-1.3 3.7q-0.7 1.9-1.7 3-1 1.2-2.1 1.7-1.2 0.4-2.3 0.4-2.2 0-2.9-1-0.8-1-0.6-2.6 0.2-1.6 0.9-3.4zm23.5-13.1l-4.9 19.4h-4.3l6-21.4q0.2-0.6 0.3-1.3 0.1-0.8-0.1-1.3-0.2-0.5-1-0.5-1.1 0-1.9 1.1-0.9 1-1.9 4l-0.7 1.8h-0.9l1.2-3.6q1.1-3.2 2.7-4.2 1.7-1 3.3-1 1.5 0 2.1 0.7 0.7 0.6 0.8 1.7 0.1 1-0.2 2.2-0.2 1.2-0.5 2.4zm-4 16l1.4-7q1.8-4.5 3.4-7.5 1.7-3.1 3.3-5 1.6-1.8 3.2-2.6 1.7-0.9 3.5-0.9 2.4 0 3.2 1.2 0.9 1.1 0.8 2.8-0.1 1.7-0.7 3.5l-4.8 14.7q-0.5 1.3-0.4 2.2 0.1 0.9 1.2 0.9 0.9 0 1.8-1.1 1-1 2-4l0.7-1.9h0.9l-1.2 3.7q-0.7 2-1.8 3.2-1 1.1-2.1 1.5-1.1 0.4-2.2 0.4-1.2 0-2-0.4-0.7-0.4-1.1-1-0.6-0.9-0.4-2.4 0.2-1.4 0.8-3.2l4.8-14.3q0.2-0.7 0.4-1.6 0.2-1-0.1-1.8-0.2-0.8-1.4-0.8-1.2 0-2.6 1.1-1.3 1-2.8 3-1.4 1.8-2.8 4.6-1.4 2.6-2.7 5.9-1.3 3.2-2.3 6.8zm32.8-7.8h1.3q-1.8 1-3.4 1.8-1.5 0.9-2.4 1.5-1 0.8-1 1.4 0 0.5 0.7 1 0.7 0.4 2.3 0.8l3.7 0.9q1.6 0.4 2.8 0.9 1.3 0.5 2.1 1.4 0.7 0.8 0.7 2.1 0 1.2-0.8 2.8-0.8 1.6-2.6 3-1.7 1.5-4.4 2.4-2.8 1-6.7 1-2.6 0-4.4-0.5-1.7-0.5-2.6-1.3-0.9-0.9-0.9-2 0-0.8 0.5-1.6 0.4-0.9 1.3-1.8 0.9-0.8 2.2-1.5 1.3-0.7 3.1-1.2l0.4 0.7q-1.9 1-2.6 2.2-0.7 1.2-0.7 2.3 0 2 1.4 3 1.4 0.8 3.5 0.8 1.6 0 3.4-0.5 1.7-0.5 3.2-1.4 1.5-0.9 2.4-2 0.9-1.2 0.9-2.4 0-0.8-0.5-1-0.4-0.3-1.5-0.5l-7.7-2q-1.2-0.3-1.9-1-0.8-0.7-0.8-2 0-1 0.7-2 0.7-1.1 2.7-2.3 1.9-1.3 5.6-3zm2.6-14.3q-1.6 0-2.7 1-1.1 0.9-1.9 2.3-0.7 1.4-1.1 3-0.3 1.5-0.5 2.8-0.1 1.3-0.1 1.9 0 1.6 0.7 2.3 0.7 0.7 1.9 0.7 1.9 0 3.1-1.2 1.2-1.2 1.8-2.8 0.7-1.7 0.9-3.4 0.2-1.7 0.2-2.9 0-1.7-0.4-2.7-0.5-1-1.9-1zm0.2-0.9q2.9 0 4.7 1.4 1.9 1.3 1.9 4.2 0 2.4-1.4 4.8-1.3 2.3-3.8 3.9-2.4 1.5-5.8 1.5-2.7 0-4.6-1.3-1.9-1.4-1.9-4.2 0-1.3 0.6-3.1 0.6-1.8 1.8-3.4 1.3-1.6 3.3-2.7 2.1-1.1 5.2-1.1zm3.5 2.6l-0.9-0.3q0.7-1.8 2.4-3 1.7-1.3 3.6-1.3 1.3 0 2.1 0.7 0.8 0.7 0.8 2.3 0 1.4-0.7 2-0.7 0.7-1.5 0.7-0.8 0-1.6-0.5-0.7-0.6-0.8-1.7-0.2-1.2 0.6-3l0.7 0.2q-2.1 0.8-3 1.7-0.9 0.8-1.7 2.2zm30.2 9.6h-2l0.2-1h2.3q3.7 0 6.2-1 2.6-1 4.1-2.9 1.6-1.8 2.3-4.3 0.7-2.4 0.7-5.2 0-2.9-1.5-4.3-1.5-1.5-4.9-1.5-1.4 0-2.3 0.4-0.9 0.4-1.4 1.3-0.5 0.9-1 2.6l-6.6 24.8q-0.4 1.6-0.4 2.5-0.1 0.9 0.6 1.4 0.8 0.4 2.8 0.4l-0.2 1q-1.2-0.1-2.8-0.1-1.7 0-3.4 0-2 0-3.7 0-1.8 0-2.8 0.1l0.2-1q1.7-0.1 2.6-0.4 1-0.3 1.5-1.2 0.6-0.9 1-2.7l6.6-24.8q0.5-1.6 0.4-2.5 0-0.9-0.7-1.3-0.8-0.5-2.6-0.5l0.2-1q1 0 2.8 0.1 1.7 0.1 3.4 0.1 1.8 0 3.6-0.1 1.8-0.1 3.7-0.1 5 0 7.5 2.2 2.4 2 2.4 5.4 0 3.9-2.4 7-2.3 3.1-6.6 4.9-4.2 1.7-9.8 1.7zm20.9 3.7l0.1-0.9q2.8-0.9 5-1.8 2.3-0.9 3.7-2 1.8-1.4 2.8-3.5 1.1-2 1.1-4.5 0-1.4-0.2-1.8-0.2-0.4-0.6-0.4-1.3 0-2.7 1-1.5 1.2-2.9 3.1-1.4 1.9-2.6 4.4-1.1 2.4-1.8 5.2-0.7 2.8-0.7 5.5 0 2.6 0.9 3.7 1 1.1 2.5 1.1 1.8 0 3.8-1.1 2-1.1 3.9-3.9l0.8 0.4q-0.9 1.6-2.5 3.2-1.5 1.6-3.5 2.6-1.9 0.9-4 0.9-2 0-3.5-0.8-1.5-0.8-2.3-2.3-0.8-1.6-0.8-4 0-2.1 0.8-4.7 0.8-2.8 2.2-5.4 1.5-2.7 3.6-4.9 2-2.3 4.5-3.6 2.5-1.4 5.4-1.4 1.5 0 2.6 0.9 1.1 0.8 1.1 2.4 0 2-1.2 3.7-1.2 1.8-3.1 3.2-1.9 1.4-4.2 2.5-2.2 1.1-4.4 1.9-2.1 0.8-3.8 1.3zm28.3-8.9l-4.9 19.4h-4.4l6-21.4q0.5-1.7 0.3-2.5-0.1-0.6-1-0.6-1.1 0-2 1.1-0.9 1.2-1.9 4l-0.6 1.8h-1l1.3-3.6q0.7-2.2 1.7-3.2 1.1-1.1 2.2-1.5 1.1-0.5 2.1-0.5 1.5 0 2.1 0.7 0.7 0.6 0.7 1.7 0.1 1-0.1 2.3-0.2 1.2-0.5 2.3zm7.9-5.7q-1.1 0-2.4 1.1-1.2 1-2.5 3.1-1.2 2-2.5 4.8-1.3 2.8-2.5 6.2-1.2 3.5-2.4 7.5l1.3-6.4q1.6-4.9 3-8.2 1.5-3.4 2.9-5.4 1.4-2.1 2.8-3 1.5-1 3.2-1 1.4 0 2.1 0.8 0.8 0.8 0.8 2.1 0 1-0.5 1.8-0.5 0.8-1.3 1.3-0.7 0.5-1.7 0.5-0.8 0-1.4-0.5-0.6-0.5-0.6-1.3 0-0.8 0.3-1.4 0.3-0.7 0.8-1.1 0.5-0.5 1.2-0.7-0.1-0.1-0.3-0.2-0.1 0-0.3 0zm20.5 0.4h-14.7l0.3-1h14.7zm1.3-13.7q-0.9 0-1.6 0.5-0.7 0.4-1.2 0.9-1 0.8-1.7 2.6-0.6 1.7-1.2 3.9-0.6 2.3-1.2 4.8l-9.3 34.4q-1.1 0.1-2.3 0.2-1.2 0.2-2.2 0.5l9.4-35.1q1.1-4 2.2-6.7 1.3-2.5 2.9-4.2 1.2-1.1 2.9-1.8 1.6-0.7 3.4-0.7 2.3 0 3.5 1.1 1.2 1 1.2 2.5 0 0.8-0.4 1.6-0.4 0.8-1.2 1.3-0.7 0.5-1.7 0.5-1 0-1.5-0.4-0.5-0.5-0.5-1.3 0-1.2 0.8-2.1 0.8-0.9 2-1.2 0-0.5-0.6-0.8-0.7-0.5-1.7-0.5zm11.8 13q-1.5 0-3 1.3-1.5 1.2-2.8 3.5-1.2 2.1-2.1 4.8-0.9 2.7-1.4 5.6-0.5 2.9-0.5 5.6 0 2.2 0.7 3.2 0.8 1.1 2.1 1.1 1.7 0 3.1-1.2 1.5-1.4 2.8-3.5 1.2-2.2 2.1-4.9 0.9-2.7 1.4-5.5 0.5-3 0.5-5.6 0-2.4-0.7-3.4-0.7-1-2.2-1zm-14.1 18.3q0-2.3 0.6-4.8 0.6-2.6 1.8-5.2 1.2-2.5 2.9-4.6 1.8-2.2 4-3.4 2.3-1.3 5.2-1.3 3.1 0 4.9 2 1.9 1.9 1.9 5.9 0 2.1-0.6 4.8-0.6 2.6-1.8 5.1-1.2 2.6-2.9 4.7-1.7 2-4 3.4-2.4 1.2-5.2 1.2-3 0-5-1.9-1.8-2-1.8-5.9zm34.3-12.3l-4.9 19.4h-4.4l6-21.4q0.5-1.7 0.3-2.5-0.1-0.6-1-0.6-1.1 0-2 1.1-0.8 1.2-1.8 4l-0.7 1.8h-1l1.3-3.6q0.7-2.2 1.7-3.2 1.1-1.1 2.2-1.5 1.1-0.5 2.1-0.5 1.5 0 2.1 0.7 0.7 0.6 0.8 1.7 0 1-0.2 2.3-0.2 1.2-0.5 2.3zm7.9-5.7q-1.1 0-2.4 1.1-1.2 1-2.5 3.1-1.2 2-2.5 4.8-1.3 2.8-2.5 6.2-1.2 3.5-2.3 7.5l1.2-6.4q1.6-4.9 3-8.2 1.5-3.4 2.9-5.4 1.4-2.1 2.9-3 1.5-1 3.1-1 1.4 0 2.1 0.8 0.8 0.8 0.8 2.1 0 1-0.5 1.8-0.5 0.8-1.3 1.3-0.7 0.5-1.7 0.5-0.8 0-1.4-0.5-0.6-0.5-0.6-1.3 0-0.8 0.3-1.4 0.3-0.7 0.8-1.1 0.5-0.5 1.2-0.7-0.1-0.1-0.3-0.2 0 0-0.3 0zm13.4 5.7l-4.9 19.4h-4.4l6-21.4q0.2-0.5 0.3-1.2 0.2-0.8 0-1.3-0.1-0.6-1-0.6-1.1 0-2 1.1-0.8 1.2-1.8 4l-0.7 1.8h-1l1.3-3.6q0.7-2.2 1.7-3.2 1.1-1.1 2.2-1.5 1.2-0.5 2.2-0.5 1.5 0 2.1 0.7 0.7 0.7 0.7 1.8 0.1 1-0.2 2.2-0.2 1.2-0.5 2.3zm3 19.4l6.2-20.6q0.4-1 0.5-2 0.2-0.9-0.2-1.5-0.2-0.7-1.1-0.7-1.5 0-3.2 1.8-1.6 1.7-3.3 4.8-1.7 3-3.4 7.1-1.6 4.1-2.8 8.7l1.7-8q2.3-6 4.3-9.5 2-3.5 4-5 2-1.5 4.3-1.5 1.6 0 2.3 0.8 0.7 0.7 0.9 1.8 0.2 1.2-0.1 2.5-0.2 1.3-0.5 2.5l-5.1 18.8zm14-6.3l4.7-14.3q0.5-1.5 0.5-2.8 0-1.4-1-1.4-1.5 0-3.2 1.8-1.6 1.7-3.4 5-1.7 3.2-3.5 7.5-1.7 4.3-3.3 9.5l1.1-6.4q2-5.2 3.6-8.8 1.7-3.6 3.3-5.9 1.6-2.2 3.3-3.2 1.7-1.1 3.7-1.1 2.1 0 2.9 1.2 0.7 1.2 0.5 3 0 1.7-0.6 3.4l-4.9 14.6q-0.5 1.5-0.3 2.3 0.1 0.8 1.1 0.8 1 0 1.9-1.1 1-1 2-4l0.6-1.9h1l-1.3 3.7q-0.7 2.1-1.7 3.2-1 1.1-2.1 1.5-1.2 0.4-2.2 0.4-1.3 0-2-0.3-0.7-0.4-1.1-1-0.6-1-0.4-2.4 0.2-1.4 0.8-3.3zm19.1 5.4q1.2 0 2.8-1.5 1.5-1.5 3.1-4.1 1.6-2.6 2.9-5.9 1.4-3.3 2.2-6.9l-0.9 5.4q-1.8 5.3-3.8 8.6-1.9 3.2-3.8 4.6-2 1.4-4 1.4-2.3 0-3.5-1.7-1.2-1.7-1.2-4.3 0-2.4 0.8-5.2 0.8-2.9 2.2-5.7 1.5-2.8 3.3-5.1 1.9-2.3 4-3.7 2.2-1.4 4.5-1.4 1.7 0 2.7 1.8 0.9 1.7 0.3 4.8l-0.5 0.3q0.3-2.7-0.3-4.3-0.8-1.6-2.4-1.6-1.3 0-2.7 1.3-1.4 1.2-2.8 3.4-1.3 2.2-2.4 4.9-1 2.7-1.7 5.6-0.5 2.8-0.5 5.5 0 2.1 0.4 3 0.5 0.8 1.3 0.8zm7.7-5.4l4.9-19.4q1.2 0 2.4-0.2 1.2-0.1 2.2-0.5l-6.3 22.1q-0.1 0.5-0.3 1.2-0.1 0.7 0 1.3 0.2 0.6 1.1 0.6 1 0 1.9-1.1 1-1.1 1.9-4l0.6-1.8h1l-1.3 3.6q-0.7 2-1.7 3.2-0.9 1.1-2 1.6-1 0.4-2 0.4-2 0-2.8-1.3-0.6-1.1-0.3-2.6 0.3-1.6 0.7-3.1zm22.9-13.1l-4.9 19.4h-4.4l6-21.4q0.2-0.6 0.3-1.3 0.2-0.8 0-1.3-0.2-0.5-1-0.5-1.2 0-2 1.1-0.8 1-1.9 4l-0.6 1.8h-1l1.3-3.6q1-3.2 2.7-4.2 1.6-1 3.2-1 1.5 0 2.1 0.7 0.8 0.6 0.8 1.7 0.1 1-0.1 2.2-0.2 1.2-0.5 2.4zm-4.1 16l1.4-7q1.8-4.5 3.5-7.5 1.6-3.1 3.2-5 1.6-1.8 3.3-2.6 1.7-0.9 3.5-0.9 2.3 0 3.2 1.2 0.8 1.1 0.8 2.8-0.1 1.7-0.7 3.6l-4.9 14.6q-0.4 1.3-0.4 2.2 0.1 0.9 1.2 0.9 1 0 1.8-1.1 1-1 2-4l0.7-1.9h1l-1.3 3.7q-0.7 2.1-1.7 3.2-1 1.1-2.2 1.5-1.1 0.4-2.1 0.4-1.2 0-2-0.4-0.8-0.4-1.2-1-0.5-0.9-0.3-2.4 0.1-1.4 0.8-3.2l4.7-14.3q0.3-0.7 0.4-1.6 0.2-1 0-1.8-0.3-0.8-1.5-0.8-1.2 0-2.5 1.1-1.4 1-2.8 3-1.5 1.9-2.9 4.6-1.4 2.6-2.7 5.9-1.2 3.2-2.3 6.8zm38.2-22q-1.9 0-3.8 1.6-1.8 1.5-3.4 4.2-1.6 2.7-2.5 6.2-0.9 3.4-0.9 7.2 0 2.6 1 3.7 1 1.1 2.5 1.1 1.8 0 3.7-1.1 1.9-1.1 3.8-3.9l1 0.4q-0.9 1.7-2.5 3.2-1.5 1.6-3.5 2.6-1.9 0.9-4 0.9-3 0-4.9-1.8-1.8-1.9-1.8-5.5 0-2.3 0.7-5 0.7-2.7 2-5.3 1.3-2.6 3.1-4.7 1.9-2.2 4.2-3.5 2.3-1.3 5.2-1.3 2.1 0 3.8 1.2 1.5 1.1 1.5 3.1 0 0.9-0.4 1.9-0.4 0.9-1.2 1.5-0.8 0.6-1.9 0.6-1 0-1.5-0.6-0.5-0.6-0.5-1.4 0-1.4 1.1-2.4 1.2-1.1 2.6-1.4-0.5-0.6-1.3-1-0.8-0.5-2.1-0.5zm9.6 14.9v-0.9q2.8-0.9 5.1-1.8 2.3-0.9 3.6-2 1.8-1.4 2.9-3.5 1-2 1-4.5 0-1.4-0.2-1.8-0.2-0.4-0.6-0.4-1.2 0-2.7 1-1.4 1.2-2.8 3.1-1.4 1.9-2.6 4.4-1.2 2.4-1.9 5.2-0.7 2.8-0.7 5.5 0 2.6 1 3.7 0.9 1.1 2.5 1.1 1.8 0 3.8-1.1 2-1.1 3.9-3.9l0.8 0.4q-1 1.6-2.5 3.2-1.6 1.6-3.5 2.6-1.9 0.9-4.1 0.9-2 0-3.5-0.8-1.5-0.8-2.3-2.3-0.8-1.6-0.8-4 0-2.1 0.8-4.7 0.8-2.8 2.3-5.4 1.5-2.7 3.5-4.9 2.1-2.3 4.6-3.6 2.5-1.4 5.3-1.4 1.6 0 2.6 0.9 1.1 0.8 1.1 2.4 0 2-1.2 3.7-1.1 1.8-3.1 3.2-1.9 1.4-4.1 2.5-2.3 1.1-4.4 1.9-2.2 0.8-3.8 1.3zm17.3 8.6q0-1.5 1.1-2.6 1.2-1.2 2.5-1.2 1.2 0 1.9 0.8 0.7 0.7 0.7 1.8 0 1-0.6 1.9-0.5 0.8-1.3 1.4-0.8 0.5-1.8 0.5-1.1 0-1.9-0.7-0.6-0.7-0.6-1.9z"/>
	<path id="Shape 1" fill-rule="evenodd" class="s1" d="m1 303.4v-5h916v5z"/>
	<path id="GARAGE DOOR" class="s2" aria-label="GARAGE DOOR"  d="m47.5 231v15.6h22.3q-1 3.3-3 6.2-1.8 2.7-4.4 4.9-2.6 2-6.4 3.2-3.7 1.1-8.2 1.1-7.5 0-13.2-3.2-5.7-3.4-9-9.4-3.3-6.1-3.3-14.4 0-8.4 3.4-14.2 3.5-5.8 9.2-9 5.8-3.1 12.9-3.1 7.3 0 12.1 3.4 4.9 3.2 7.8 8.3l18-9.4q-4-5.9-9.5-10.3-5.4-4.6-12.5-7.1-7.1-2.5-15.9-2.5-10 0-18.5 3.1-8.5 3.1-14.9 8.9-6.4 5.7-9.8 13.9-3.5 8-3.5 18 0 10 3.3 18.2 3.5 8.2 9.6 14.2 6.2 5.9 14.6 9.1 8.4 3.1 18.4 3.1 10.7 0 19-3.7 8.3-3.8 13.8-10.5 5.5-6.8 8.2-15.5 2.6-8.8 2-18.9zm67.8 14.3l-1.4 15.5h44.4l-1.4-15.5zm8.8 5.7l11.8-27.2 11.8 27.3-0.7 5.1 10.1 20.8h23l-44.2-89.3-44.2 89.3h22.9l10.5-21.6zm107.5-12h-21.1l23.6 38h23.8zm-21.8-45.9h-20.2v84h20.2zm-7.5 0v17.1h16.4q4.1 0 7 1.4 3 1.3 4.5 3.8 1.6 2.4 1.6 5.9 0 3.5-1.6 6-1.5 2.4-4.5 3.7-2.9 1.2-7 1.2h-16.4v15.7h17.9q10.8 0 18-3.5 7.2-3.4 10.9-9.6 3.7-6.2 3.7-14.2 0-8.2-3.7-14.3-3.7-6.3-10.9-9.7-7.2-3.5-18-3.5zm80.2 52.3l-1.4 15.5h44.4l-1.3-15.5zm8.7 5.6l11.8-27.1 11.9 27.3-0.7 5.1 10 20.8h23.1l-44.3-89.3-44.2 89.3h23l10.4-21.6zm103.6-19.9v15.6h22.3q-1.1 3.2-3 6.1-1.8 2.7-4.5 4.9-2.6 2-6.3 3.2-3.7 1.1-8.3 1.1-7.4 0-13.2-3.2-5.6-3.4-9-9.4-3.2-6.1-3.2-14.4 0-8.4 3.3-14.1 3.5-5.9 9.3-9 5.7-3.2 12.8-3.2 7.3 0 12.1 3.4 4.9 3.2 7.8 8.3l18-9.4q-3.9-5.9-9.5-10.3-5.4-4.6-12.4-7.1-7.1-2.5-16-2.5-10 0-18.5 3.1-8.5 3.1-14.9 8.9-6.3 5.8-9.8 13.9-3.5 8.1-3.5 18 0 10 3.4 18.3 3.5 8.1 9.6 14.1 6.1 5.9 14.5 9.1 8.4 3.2 18.5 3.2 10.7 0 18.9-3.8 8.3-3.8 13.8-10.5 5.6-6.7 8.2-15.5 2.6-8.8 2-18.8zm70.2 29.2v16.7h42.4v-16.7zm0-67.3v16.7h42.4v-16.7zm0 31.7v16.3h39.9v-16.3zm6-31.7h-19.4v84h19.4zm111.3 0h-20.9v84h20.9zm-7.5 84h16.6q13.8 0 23.9-5.1 10-5.2 15.6-14.6 5.5-9.4 5.5-22.3 0-12.9-5.5-22.3-5.6-9.4-15.6-14.5-10.1-5.2-23.9-5.2h-16.6v18h15.9q4.8 0 9.2 1.2 4.6 1.2 7.9 4 3.5 2.7 5.5 7.4 2.1 4.6 2.1 11.4 0 6.9-2.1 11.5-2 4.6-5.5 7.4-3.3 2.7-7.9 3.9-4.4 1.2-9.2 1.2h-15.9zm91.9-42q0-7.4 2.9-13.1 3-5.7 8.3-9 5.4-3.2 12.6-3.2 7.3 0 12.6 3.2 5.3 3.3 8.2 9 2.8 5.7 2.8 13.1 0 7.5-3 13.2-2.8 5.7-8.2 8.9-5.3 3.2-12.4 3.2-7.2 0-12.6-3.2-5.3-3.2-8.3-8.9-2.9-5.7-2.9-13.2zm-21.4 0q0 9.7 3.2 17.9 3.4 8.2 9.4 14.2 6.1 6 14.4 9.3 8.2 3.3 18.2 3.3 9.8 0 18.1-3.3 8.3-3.3 14.3-9.3 6.1-6 9.4-14.2 3.3-8.2 3.3-17.9 0-9.7-3.3-17.7-3.4-8.1-9.5-14-6.1-5.8-14.4-9-8.2-3.2-17.9-3.2-9.6 0-17.9 3.2-8.3 3.2-14.4 9-6.1 5.9-9.6 14-3.3 8-3.3 17.7zm120.7 0q0-7.4 2.9-13.1 3-5.7 8.2-9 5.4-3.2 12.6-3.2 7.4 0 12.6 3.2 5.3 3.3 8.2 9 2.9 5.7 2.9 13.1 0 7.5-3 13.2-2.9 5.7-8.3 8.9-5.3 3.2-12.4 3.2-7.2 0-12.6-3.2-5.2-3.2-8.2-8.9-2.9-5.7-2.9-13.2zm-21.5 0q0 9.7 3.2 17.9 3.4 8.2 9.4 14.2 6.1 6 14.4 9.3 8.3 3.3 18.2 3.3 9.9 0 18.2-3.3 8.2-3.3 14.2-9.3 6.2-6 9.4-14.2 3.4-8.2 3.4-17.9 0-9.7-3.4-17.7-3.4-8.1-9.5-14-6.1-5.8-14.4-9-8.1-3.2-17.9-3.2-9.6 0-17.8 3.2-8.3 3.2-14.4 9-6.2 5.9-9.6 14-3.4 8-3.4 17.7zm146 4h-21.1l23.7 38h23.7zm-21.7-45.9h-20.3v84h20.3zm-7.6 0v17.1h16.5q4.1 0 6.9 1.3 3 1.4 4.6 3.9 1.6 2.4 1.6 5.9 0 3.4-1.6 6-1.6 2.4-4.6 3.7-2.8 1.2-6.9 1.2h-16.5v15.7h17.9q10.8 0 18-3.5 7.2-3.5 10.9-9.6 3.8-6.2 3.8-14.3 0-8.1-3.8-14.2-3.7-6.3-10.9-9.8-7.2-3.4-18-3.4z"/>
	<path id="ISABELLA" class="s3" aria-label="ISABELLA"  d="m56.4 4.8v4.5q-6.6 0.2-10 1.7-3.4 1.4-4.6 5.4-1.2 3.7-1.2 12v110.1q0 8 1.2 12 1.2 4 4.6 5.3 3.4 1.3 10 1.8v4.4q-4.8-0.4-12.2-0.4-7.2-0.3-14.8-0.3-8.4 0-15.8 0.3-7.2 0-11.8 0.4v-4.4q6.8-0.5 10.2-1.8 3.4-1.3 4.4-5.3 1.2-4 1.2-12v-110.1q0-8.3-1.2-12-1-4-4.6-5.4-3.4-1.5-10-1.7v-4.5q4.6 0.2 11.8 0.5 7.4 0.2 15.8 0.2 7.6 0 14.8-0.2 7.4-0.3 12.2-0.5zm60.8-2.6q10.6 0 16.2 2.6 5.6 2.7 9.8 5.8 2.4 1.5 3.8 2.4 1.6 0.7 3 0.7 2 0 2.8-2.4 1-2.5 1.6-7.4h4.6q-0.2 4-0.6 9.6-0.2 5.3-0.4 14.2 0 8.9 0 23.3h-4.6q-0.6-10.9-4.4-21.1-3.6-10.2-10.8-16.6-7-6.5-18-6.5-10.2 0-17 6.9-6.6 6.7-6.6 17.8 0 9.7 4.4 16.4 4.4 6.4 12 12.2 7.8 5.6 17.6 12.4 10 7.1 18 14.2 8 6.9 12.6 15.4 4.6 8.4 4.6 20.4 0 14.4-6.2 24-6 9.3-16.2 13.9-10.2 4.7-22.4 4.7-11.2 0-17.8-2.7-6.6-2.6-11.2-5.5-4.4-3.1-6.8-3.1-2 0-3 2.4-0.8 2.5-1.4 7.4h-4.6q0.4-4.9 0.4-11.4 0.2-6.6 0.2-17.3 0.2-10.6 0.2-26.8h4.6q0.8 13.7 4.4 25.7 3.8 12 11.4 19.3 7.8 7.1 20.6 7.1 6.8 0 12.6-2.9 5.8-2.8 9.4-9.1 3.6-6.2 3.6-15.9 0-9.2-4-16-3.8-6.9-10.8-12.7-6.8-6-16-12.2-9.4-6.7-17.6-13.3-8.2-6.7-13.2-15.6-4.8-8.8-4.8-21 0-13.6 5.6-22.2 5.8-8.7 14.8-12.9 9.2-4.2 19.6-4.2zm124 1.7l48.8 139.5q2.8 8.2 6.4 11.1 3.8 2.8 7 3.1v4.4q-4.8-0.4-11.4-0.4-6.4-0.3-13-0.3-8.4 0-15.6 0.3-7.2 0-11.6 0.4v-4.4q10.2-0.5 12.8-3.8 2.8-3.6-1.2-14.9l-36-107.9 3.2-4-33.2 96.4q-3.6 10-4.4 16.6-0.6 6.7 1 10.5 1.8 3.7 6 5.3 4.2 1.5 10.4 1.8v4.4q-6-0.4-12.2-0.4-6-0.3-11.4-0.3-4.8 0-8.6 0.3-3.6 0-6.6 0.4v-4.4q4.2-1.2 8.4-5.6 4.2-4.4 8-15.1l46.4-133q1.6 0 3.4 0 1.8 0 3.4 0zm-36.6 94.2h57.6v4.4h-59.6zm101.2-88.8v-4.4q4.6 0.2 11.8 0.4 7.4 0.2 14.6 0.2 9.6 0 18.2-0.2 8.8-0.2 12.4-0.2 22.4 0 33.4 9.8 11.2 9.7 11.2 25 0 7.8-3.4 15.6-3.2 7.5-10.6 13.7-7.4 6-19.6 9.6v0.4q16.8 2 26.4 8 9.6 6 13.6 14.5 4 8.2 4 17.3 0 13.1-6 22.8-6 9.6-17.4 14.9-11.2 5.3-27 5.3-4.4 0-13.4-0.2-8.8-0.4-21.4-0.4-7.6 0-15 0.2-7.2 0-11.8 0.4v-4.4q6.8-0.4 10.2-1.8 3.4-1.3 4.4-5.3 1.2-4 1.2-12v-110.1q0-8.2-1.2-12-1-4-4.6-5.3-3.4-1.6-10-1.8zm52.8 0q-8.6 0-11.4 3.8-2.6 3.8-2.6 15.3v110.1q0 7.8 1.2 11.8 1.2 4 4.2 5.3 3.2 1.3 9.2 1.3 18 0 26-10 8.2-10.2 8.2-28.8 0-17.1-8.2-26.4-8-9.4-26.6-9.4h-19.4q0 0 0-1.7 0-2 0-2h17.2q11 0 17-4.9 6-5.1 8.2-13.3 2.2-8.5 2.2-18 0-16.4-5.8-24.7-5.8-8.4-19.4-8.4zm176-4.4q-0.8 8.4-1.2 16.4-0.2 7.8-0.2 12 0 4.2 0.2 8 0.2 3.7 0.4 6.2h-4.6q-1.4-14.2-4.4-22.4-2.8-8.2-8.6-11.6-5.6-3.5-15.8-3.5h-13.8q-6.4 0-9.8 1.3-3.2 1.1-4.4 4.9-1.2 3.5-1.2 11.3v111.9q0 7.5 1.2 11.3 1.2 3.8 4.4 5.1 3.4 1.1 9.8 1.1h13q11.4 0 18-4 6.8-4 10.2-13.1 3.6-9.1 5.4-24.8h4.6q-0.6 6.4-0.6 16.8 0 4.5 0.2 12.9 0.4 8.5 1.2 17.3-10.2-0.4-23-0.4-12.8-0.2-22.8-0.2-4.6 0-11.8 0-7.2 0-15.6 0.2-8.2 0-16.8 0.2-8.4 0-16.2 0.2v-4.4q6.8-0.4 10.2-1.8 3.4-1.3 4.4-5.3 1.2-4 1.2-12v-110.1q0-8.2-1.2-12-1-4-4.6-5.3-3.4-1.6-10-1.8v-4.4q7.8 0.2 16.2 0.4 8.6 0 16.8 0.2 8.4 0 15.6 0 7.2 0 11.8 0 9.2 0 20.8 0 11.8-0.2 21-0.6zm-69.4 75.9h36.2q0 0 0 2.2 0 2.2 0 2.2h-36.2q0 0 0-2.2 0-2.2 0-2.2zm37.4-29.3h4.6q-0.8 12.6-0.8 19.3 0.2 6.7 0.2 12.2 0 5.6 0.2 12.2 0.2 6.7 1 19.3h-4.6q-1-7.3-2.6-14-1.6-6.8-5.8-11.1-4-4.2-12.6-4.2v-4.4q6.4 0 10-2.9 3.8-2.9 5.8-7.5 2-4.7 2.8-9.6 1-5.1 1.8-9.3zm108.2-46.6v4.4q-6.8 0.2-10.4 1.8-3.4 1.3-4.6 5.3-1.2 3.8-1.2 12v111q0 7.5 1 11.3 1.2 3.8 4.4 5.1 3.4 1.1 9.6 1.1h13q8.6 0 14.4-2.6 6-2.7 10-8 4-5.4 6.2-13.8 2.2-8.4 3.4-19.7h4.6q-0.6 7.1-0.6 18.6 0 4.4 0.2 13.1 0.4 8.4 1.2 17.5-10.2-0.4-23-0.4-12.8-0.2-22.8-0.2-4.6 0-11.8 0-7.2 0-15.6 0.2-8.2 0-16.8 0.2-8.4 0-16.2 0.2v-4.4q6.8-0.4 10.2-1.8 3.4-1.3 4.4-5.3 1.2-4 1.2-12v-110.1q0-8.2-1.2-12-1-4-4.6-5.3-3.4-1.6-10-1.8v-4.4q4.6 0.2 11.8 0.4 7.4 0.2 15.8 0.2 7.6 0 15-0.2 7.6-0.2 12.4-0.4zm119.2 0v4.4q-6.8 0.2-10.4 1.8-3.4 1.3-4.6 5.3-1.2 3.8-1.2 12v111q0 7.5 1 11.3 1.2 3.8 4.4 5.1 3.4 1.1 9.6 1.1h13q8.6 0 14.4-2.6 6-2.7 10-8 4-5.4 6.2-13.8 2.2-8.4 3.4-19.7h4.6q-0.6 7.1-0.6 18.6 0 4.4 0.2 13.1 0.4 8.4 1.2 17.5-10.2-0.4-23-0.4-12.8-0.2-22.8-0.2-4.6 0-11.8 0-7.2 0-15.6 0.2-8.2 0-16.8 0.2-8.4 0-16.2 0.2v-4.4q6.8-0.4 10.2-1.8 3.4-1.3 4.4-5.3 1.2-4 1.2-12v-110.1q0-8.2-1.2-12-1-4-4.6-5.3-3.4-1.6-10-1.8v-4.4q4.6 0.2 11.8 0.4 7.4 0.2 15.8 0.2 7.6 0 15-0.2 7.6-0.2 12.4-0.4zm124-0.9l48.8 139.4q2.8 8.2 6.4 11.1 3.8 2.9 7 3.1v4.4q-4.8-0.4-11.4-0.4-6.4-0.2-13-0.2-8.4 0-15.6 0.2-7.2 0-11.6 0.4v-4.4q10.2-0.4 12.8-3.8 2.8-3.5-1.2-14.8l-36-107.9 3.2-4-33.2 96.3q-3.6 10-4.4 16.7-0.6 6.6 1 10.4 1.8 3.8 6 5.3 4.2 1.6 10.4 1.8v4.4q-6-0.4-12.2-0.4-6-0.2-11.4-0.2-4.8 0-8.6 0.2-3.6 0-6.6 0.4v-4.4q4.2-1.1 8.4-5.6 4.2-4.4 8-15l46.4-133q1.6 0 3.4 0 1.8 0 3.4 0zm-36.6 94.1h57.6v4.4h-59.6z"/>
</svg>