<svg version="1.2" xmlns="http://www.w3.org/2000/svg" viewBox="0 0 263 285" width="263" height="285">
	<title>ChatGPT Image Jun 22, 2025, 11_26_34 PM</title>
	<style>
		.s0 { opacity: .45;fill: #e3e4e0 } 
		.s1 { opacity: 1;fill: #677783 } 
		.s2 { fill: #12324a } 
		.s3 { opacity: .25;fill: #fafbfb } 
		.s4 { opacity: 1;fill: #adb5b8 } 
	</style>
	<g id="Background">
		<path id="Path 0" class="s0" d="m82.5 93.7c22.6 0.2 59.7 0.2 82.5 0 22.8-0.1 4.4-0.2-41-0.2-45.4 0-64.1 0.1-41.5 0.2z"/>
		<path id="Path 1" class="s1" d="m246.4 88c0 8 0.2 11.3 0.3 7.5 0.2-3.8 0.2-10.4 0-14.5-0.1-4.1-0.3-1-0.3 7zm-13 3.5c0 6.6 0.1 9.1 0.3 5.5 0.2-3.6 0.2-9 0-12-0.2-3-0.3-0.1-0.3 6.5z"/>
		<path id="Path 2" fill-rule="evenodd" class="s2" d="m123.3 1c0.9 0 3.8 1.1 6.5 2.4 2.6 1.3 10.1 5.5 16.7 9.3 6.6 3.8 19.4 11.2 28.5 16.5 9.1 5.3 21.4 12.5 27.5 16 6.1 3.6 17.3 10.2 25 14.8 7.7 4.5 15 9.2 16.3 10.4 2.2 2 2.3 2.8 2.2 17.6 0 10.8-0.3 15.9-1.2 16.7-0.7 0.7-2.8 1.3-4.7 1.3-2 0-4.2-0.5-4.9-1.2-0.8-0.9-1.2-4.9-1.3-24.3l-8.7-4.9c-4.8-2.8-14.3-8.3-21.2-12.4-6.9-4.1-19.7-11.6-28.5-16.7-8.8-5.1-23-13.3-31.5-18.3-8.5-4.9-16.6-9.5-18-10.2-2.3-1.2-4.7 0.1-34.5 17.7-17.6 10.4-42 25-76.5 45.8v138.5h22v-60.8c0.1-51.7 0.3-61 3-65.2h83.8c77.9 0 83.8 0.2 85.5 1.8 1 0.9 1.8 2.8 1.7 4.2 0 1.4-0.7 3.5-3 7h-159v16h117.5l2.3 2.3c1.2 1.2 2.2 3.3 2.2 4.7 0 1.4-0.7 3.5-3 7h-119v16h48.8c41.7 0 49 0.2 51 1.5 1.6 1.1 2.2 2.5 2.2 5 0 2.7-0.7 4-2.7 5.5-2.7 2-4.1 2.1-99.3 2v31.5c0 30.2-0.1 31.6-2 33.5-1.9 1.9-3.3 2-21.5 2-19.5 0-19.5 0-24.5-5v-76.8c0.1-58.7 0.3-77.1 1.3-78.3 0.7-0.9 5.7-4.5 11.2-8.1 5.5-3.5 15.9-10 23-14.3 7.2-4.3 15.3-9.2 18-11 2.8-1.7 14-8.5 25-15 11-6.5 25-14.7 31-18.2 6.1-3.5 11.8-6.3 12.8-6.3zm96.7 121.4c8.9 0.2 12.7 0.8 17 2.5 3 1.2 7.5 3.4 10 5 2.5 1.6 5.1 4.2 5.8 5.8 1.1 2.2 1.1 3.3 0.1 5.3-0.6 1.4-1.7 2.8-2.3 3.2-0.6 0.4-2.2 0.8-3.6 0.8-1.4 0-4.1-1.1-6-2.6-1.9-1.4-5.1-3.2-7-4-1.9-0.8-6-1.9-9-2.5-4.1-0.8-7.4-0.8-13 0.1-4.1 0.7-9.3 2.1-11.5 3.3-2.2 1.1-5.2 2.8-6.7 3.8-1.6 1.1-3.8 1.9-5 1.9-1.3 0-3.1-0.8-4.1-1.8-1-1-1.8-3.1-1.7-5 0-2.4 0.8-3.9 3.3-6 1.7-1.5 5.8-4 9-5.5 3.1-1.5 7.4-3.1 9.5-3.7 2-0.5 8.9-0.8 15.2-0.6zm-2 24.6c4.1 0 9.8 0.6 12.5 1.4 2.8 0.8 6 2.5 7.3 3.8 1.6 1.7 2.2 3.2 2 5.8-0.2 2.5-1 3.8-3 5-2.5 1.4-3.1 1.3-8-0.5-3.1-1.1-7.6-1.9-10.8-1.8-3.8 0-7.2 0.9-11 2.8-3.5 1.7-6.3 2.5-7.7 2.1-1.3-0.3-3-2-3.8-3.6-1-2-1.2-3.7-0.6-5.3 0.4-1.2 1.5-2.7 2.2-3.4 0.8-0.7 4.1-2.4 7.4-3.7 4.5-1.9 7.8-2.6 13.5-2.6zm-0.5 29c31.2 0 33.2 0.1 36.3 2 1.7 1.1 4.1 3.5 5.2 5.2 2 3.2 2 4.7 1.8 46.8-0.3 41.7-0.4 43.6-2.3 46.1-1.1 1.4-3.1 3.5-4.5 4.5-2.3 1.8-4.7 1.9-36.2 1.9-32.1 0-33.8-0.1-36.4-2-1.4-1.1-3.6-3.3-4.8-4.8-2.1-2.8-2.1-3.8-2.4-46-0.2-41.8-0.2-43.3 1.8-46.5 1.1-1.7 3.5-4.1 5.3-5.2 3-1.9 5-2 36.2-2zm-29.2 55l0.2 38c51.4 0 58-0.3 58.2-1.3 0.1-0.6 0.3-18 0.5-38.5 0.2-24.2-0.1-37.6-0.7-38-0.6-0.4-13.4-0.7-28.6-0.8-21.9-0.1-27.7 0.2-28.7 1.3-0.9 1-1.1 10.9-0.9 39.3z"/>
		<path id="Path 3" class="s3" d="m197.4 190.7c1.6 0.2 3.9 0.2 5 0 1.2-0.2-0.2-0.4-2.9-0.4-2.8 0-3.7 0.2-2.1 0.4zm49.9 61.8c0 4.4 0.2 6 0.4 3.5 0.2-2.5 0.2-6.1 0-8-0.2-1.9-0.4 0.1-0.4 4.5z"/>
		<path id="Path 4" class="s4" d="m207.5 211.3c-0.9 1.2-1.4 3.1-1.3 4.2 0.2 1.6 0.8 1.1 2.3-2.2 1.1-2.3 1.7-4.2 1.3-4.3-0.4 0-1.5 1-2.3 2.2zm5.3 17c0.1 0.5 0.9 1 1.7 1.3 0.8 0.3 2.4 0.5 3.5 0.5 1.1 0 2.2-0.5 2.5-1 0.3-0.6-1.3-1.1-3.7-1.3-2.4-0.1-4.2 0.1-4 0.5z"/>
		<path id="Path 5" class="s2" d="m212.2 207.6c-0.4 0.6-1.5 2.2-2.5 3.5-0.9 1.3-2.2 4.1-2.7 6.2q-1 3.7 0 3.7c0.6 0 0.8 0.4 0.5 1-0.3 0.6 0 1 0.7 1 0.6 0 0.8 0.3 0.5 0.8-0.4 0.4 0.3 1.3 1.6 2.1 1.2 0.8 4.6 1.7 7.4 2 2.9 0.3 5.3 0.3 5.3-0.1 0-0.5 0.3-0.6 0.8-0.3 0.4 0.2 1.5-0.5 2.5-1.5 0.9-1.1 1.7-2.4 1.7-3 0-0.6 0.4-1 1-1 0.6 0 0.8-1.9 0.5-4.7-0.3-2.7-0.9-5-1.3-5.3-0.5-0.3-1.2-1.3-1.5-2.2-0.4-1-1.1-1.6-1.7-1.3-0.6 0.3-1.1 0-1.2-0.7-0.2-0.7-2.4-1.2-5.6-1.2-2.9-0.1-5.6 0.4-6 1zm-1.8 36c-0.2 0.8-0.7 1.2-1.1 0.9-0.5-0.2-1.4 0.6-2.1 1.8-0.9 1.6-1 2.9-0.3 4.7 0.6 1.4 0.7 2.9 0.3 3.3-0.4 0.4 0.3 1 1.6 1.2 1.2 0.3 2.2 0.9 2.2 1.5 0 0.6 2.8 0.9 7 0.8 6.1-0.3 7.2-0.6 8.7-2.8 1-1.4 2-3.6 2.3-5 0.4-1.8-0.3-3.2-2.5-5.2-2.7-2.5-3.7-2.8-9.4-2.7-4.5 0-6.4 0.5-6.7 1.5z"/>
	</g>
</svg>